{
  "accessors": [
    {
      "bufferView": 1,
      "componentType": 5126,
      "count": 65532,
      "max": [
        95.97761535644531,
        194.5685272216797,
        249.99998474121094
      ],
      "min": [
        -6.767666491214186e-06,
        0.1455809324979782,
        0.5049884915351868
      ],
      "type": "VEC3"
    },
    {
      "bufferView": 1,
      "byteOffset": 786384,
      "componentType": 5126,
      "count": 65532,
      "max": [
        0.9999989867210388,
        0.9999600052833557,
        0.9999831318855286
      ],
      "min": [
        -0.9999994039535522,
        -0.9999983906745911,
        -0.9992647767066956
      ],
      "type": "VEC3"
    },
    {
      "bufferView": 2,
      "componentType": 5126,
      "count": 65532,
      "max": [
        0.49803921580314636,
        0.49803921580314636,
        0.49803921580314636,
        0.125490203499794
      ],
      "min": [
        0.49803921580314636,
        0.49803921580314636,
        0.49803921580314636,
        0.125490203499794
      ],
      "type": "VEC4"
    },
    {
      "bufferView": 0,
      "componentType": 5125,
      "count": 309333,
      "type": "SCALAR"
    },
    {
      "bufferView": 1,
      "byteOffset": 1572768,
      "componentType": 5126,
      "count": 65532,
      "max": [
        95.97761535644531,
        194.87835693359375,
        249.99998474121094
      ],
      "min": [
        0.5272085666656494,
        5.35817707714159e-06,
        -2.2434978745877743e-05
      ],
      "type": "VEC3"
    },
    {
      "bufferView": 1,
      "byteOffset": 2359152,
      "componentType": 5126,
      "count": 65532,
      "max": [
        0.9999899864196777,
        0.999960720539093,
        0.9998719692230225
      ],
      "min": [
        -0.9999994039535522,
        -0.999999463558197,
        -0.9999641180038452
      ],
      "type": "VEC3"
    },
    {
      "bufferView": 2,
      "byteOffset": 1048512,
      "componentType": 5126,
      "count": 65532,
      "max": [
        0.49803921580314636,
        0.49803921580314636,
        0.49803921580314636,
        0.125490203499794
      ],
      "min": [
        0.49803921580314636,
        0.49803921580314636,
        0.49803921580314636,
        0.125490203499794
      ],
      "type": "VEC4"
    },
    {
      "bufferView": 0,
      "byteOffset": 1237332,
      "componentType": 5125,
      "count": 321093,
      "type": "SCALAR"
    },
    {
      "bufferView": 1,
      "byteOffset": 3145536,
      "componentType": 5126,
      "count": 41471,
      "max": [
        95.66484832763672,
        194.86373901367188,
        249.98684692382813
      ],
      "min": [
        -6.767666491214186e-06,
        0.09839700162410736,
        0.17983700335025787
      ],
      "type": "VEC3"
    },
    {
      "bufferView": 1,
      "byteOffset": 3643188,
      "componentType": 5126,
      "count": 41471,
      "max": [
        0.9999963045120239,
        0.9999600052833557,
        0.9998767375946045
      ],
      "min": [
        -0.999997615814209,
        -0.9999821186065674,
        -0.9999641180038452
      ],
      "type": "VEC3"
    },
    {
      "bufferView": 2,
      "byteOffset": 2097024,
      "componentType": 5126,
      "count": 41471,
      "max": [
        0.49803921580314636,
        0.49803921580314636,
        0.49803921580314636,
        0.125490203499794
      ],
      "min": [
        0.49803921580314636,
        0.49803921580314636,
        0.49803921580314636,
        0.125490203499794
      ],
      "type": "VEC4"
    },
    {
      "bufferView": 0,
      "byteOffset": 2521704,
      "componentType": 5125,
      "count": 119556,
      "type": "SCALAR"
    }
  ],
  "asset": {
    "extras": {
      "author": "Anima artist's pieces (https://sketchfab.com/animaartistspieces)",
      "license": "CC-BY-4.0 (http://creativecommons.org/licenses/by/4.0/)",
      "source": "https://sketchfab.com/3d-models/horse-4ada0b0e8d6b4c16bcfc4bc88977ed54",
      "title": "Horse"
    },
    "generator": "Sketchfab-15.36.0",
    "version": "2.0"
  },
  "bufferViews": [
    {
      "buffer": 0,
      "byteLength": 2999928,
      "name": "floatBufferViews",
      "target": 34963
    },
    {
      "buffer": 0,
      "byteLength": 4140840,
      "byteOffset": 2999928,
      "byteStride": 12,
      "name": "floatBufferViews",
      "target": 34962
    },
    {
      "buffer": 0,
      "byteLength": 2760560,
      "byteOffset": 7140768,
      "byteStride": 16,
      "name": "floatBufferViews",
      "target": 34962
    }
  ],
  "buffers": [
    {
      "byteLength": 9901328,
      "uri": "scene.bin"
    }
  ],
  "materials": [
    {
      "doubleSided": true,
      "name": "Scene_-_Root",
      "pbrMetallicRoughness": {
        "baseColorFactor": [
          0.3806290697569302,
          0.3806290697569302,
          0.3806290697569302,
          1.0
        ],
        "metallicFactor": 0.0,
        "roughnessFactor": 0.6
      }
    }
  ],
  "meshes": [
    {
      "name": "Object_0",
      "primitives": [
        {
          "attributes": {
            "COLOR_0": 2,
            "NORMAL": 1,
            "POSITION": 0
          },
          "indices": 3,
          "material": 0,
          "mode": 4
        }
      ]
    },
    {
      "name": "Object_1",
      "primitives": [
        {
          "attributes": {
            "COLOR_0": 6,
            "NORMAL": 5,
            "POSITION": 4
          },
          "indices": 7,
          "material": 0,
          "mode": 4
        }
      ]
    },
    {
      "name": "Object_2",
      "primitives": [
        {
          "attributes": {
            "COLOR_0": 10,
            "NORMAL": 9,
            "POSITION": 8
          },
          "indices": 11,
          "material": 0,
          "mode": 4
        }
      ]
    }
  ],
  "nodes": [
    {
      "children": [
        1
      ],
      "matrix": [
        0.0002438391442749488,
        -0.00018517566463101249,
        -0.0006981800760888501,
        0.0,
        -1.01180153381673e-05,
        0.0007359409839380326,
        -0.0001987245620983789,
        0.0,
        0.0007222486418700935,
        7.282718837153807e-05,
        0.00023292940252717112,
        0.0,
        0.0,
        0.0,
        0.0,
        1.0
      ],
      "name": "Sketchfab_model"
    },
    {
      "children": [
        2,
        3,
        4
      ],
      "name": "Cavallo_stl.stl.cleaner.materialmerger.gles"
    },
    {
      "mesh": 0,
      "name": "Object_2"
    },
    {
      "mesh": 1,
      "name": "Object_3"
    },
    {
      "mesh": 2,
      "name": "Object_4"
    }
  ],
  "scene": 0,
  "scenes": [
    {
      "name": "Sketchfab_Scene",
      "nodes": [
        0
      ]
    }
  ]
}
