{
  "accessors": [
    {
      "bufferView": 2,
      "componentType": 5126,
      "count": 1448,
      "max": [
        67.89520263671875,
        67.89519500732422,
        998.4511108398438
      ],
      "min": [
        -67.89520263671875,
        -67.89521026611328,
        -6.103515625e-05
      ],
      "type": "VEC3"
    },
    {
      "bufferView": 2,
      "byteOffset": 17376,
      "componentType": 5126,
      "count": 1448,
      "max": [
        1.0,
        1.0,
        1.0
      ],
      "min": [
        -1.0,
        -1.0,
        -1.0
      ],
      "type": "VEC3"
    },
    {
      "bufferView": 1,
      "componentType": 5126,
      "count": 1448,
      "max": [
        3.7378673553466797,
        6.92588996887207
      ],
      "min": [
        -2.988699197769165,
        -11.290969848632813
      ],
      "type": "VEC2"
    },
    {
      "bufferView": 1,
      "byteOffset": 11584,
      "componentType": 5126,
      "count": 1448,
      "max": [
        3.7378673553466797,
        6.92588996887207
      ],
      "min": [
        -2.988699197769165,
        -11.290969848632813
      ],
      "type": "VEC2"
    },
    {
      "bufferView": 0,
      "componentType": 5125,
      "count": 7152,
      "type": "SCALAR"
    },
    {
      "bufferView": 2,
      "byteOffset": 34752,
      "componentType": 5126,
      "count": 1648,
      "max": [
        74.13191223144531,
        74.13190460205078,
        999.4512329101563
      ],
      "min": [
        -74.13191223144531,
        -74.13192749023438,
        932.5977783203125
      ],
      "type": "VEC3"
    },
    {
      "bufferView": 2,
      "byteOffset": 54528,
      "componentType": 5126,
      "count": 1648,
      "max": [
        1.0,
        1.0,
        1.0
      ],
      "min": [
        -1.0,
        -1.0,
        -1.0
      ],
      "type": "VEC3"
    },
    {
      "bufferView": 1,
      "byteOffset": 23168,
      "componentType": 5126,
      "count": 1648,
      "max": [
        5.269318580627441,
        4.83885383605957
      ],
      "min": [
        -2.582610607147217,
        -2.5742411613464355
      ],
      "type": "VEC2"
    },
    {
      "bufferView": 0,
      "byteOffset": 28608,
      "componentType": 5125,
      "count": 8640,
      "type": "SCALAR"
    }
  ],
  "asset": {
    "extras": {
      "author": "LIGHTSTAR GROUP (https://sketchfab.com/LIGHT_STAR_GROUP)",
      "license": "CC-BY-4.0 (http://creativecommons.org/licenses/by/4.0/)",
      "source": "https://sketchfab.com/3d-models/379747-piatto-lightstar-street-light-f3c3e93031ab4fcbaa9c6545d6eead0d",
      "title": "379747 Piatto Lightstar street light"
    },
    "generator": "Sketchfab-15.55.0",
    "version": "2.0"
  },
  "bufferViews": [
    {
      "buffer": 0,
      "byteLength": 63168,
      "name": "floatBufferViews",
      "target": 34963
    },
    {
      "buffer": 0,
      "byteLength": 36352,
      "byteOffset": 63168,
      "byteStride": 8,
      "name": "floatBufferViews",
      "target": 34962
    },
    {
      "buffer": 0,
      "byteLength": 74304,
      "byteOffset": 99520,
      "byteStride": 12,
      "name": "floatBufferViews",
      "target": 34962
    }
  ],
  "buffers": [
    {
      "byteLength": 173824,
      "uri": "scene.bin"
    }
  ],
  "images": [
    {
      "uri": "textures/Kraska_Black_Bump_metallicRoughness.png"
    }
  ],
  "materials": [
    {
      "doubleSided": true,
      "name": "Kraska_Black_Bump",
      "pbrMetallicRoughness": {
        "baseColorFactor": [
          0.0117647,
          0.0117647,
          0.0117647,
          1.0
        ],
        "metallicFactor": 0.0,
        "metallicRoughnessTexture": {
          "index": 0
        }
      }
    },
    {
      "doubleSided": true,
      "emissiveFactor": [
        0.5049542683,
        0.5049542683,
        0.5049542683
      ],
      "name": "Glass_mat_white",
      "pbrMetallicRoughness": {
        "baseColorFactor": [
          0.980392,
          0.980392,
          0.980392,
          1.0
        ],
        "metallicFactor": 0.0,
        "roughnessFactor": 0.5261051829
      }
    }
  ],
  "meshes": [
    {
      "name": "379747_Piatto_Lightstar_Kraska_Black_Bump_0",
      "primitives": [
        {
          "attributes": {
            "NORMAL": 1,
            "POSITION": 0,
            "TEXCOORD_0": 2,
            "TEXCOORD_1": 3
          },
          "indices": 4,
          "material": 0,
          "mode": 4
        }
      ]
    },
    {
      "name": "379747_Piatto_Lightstar_Glass_mat_white_0",
      "primitives": [
        {
          "attributes": {
            "NORMAL": 6,
            "POSITION": 5,
            "TEXCOORD_0": 7
          },
          "indices": 8,
          "material": 1,
          "mode": 4
        }
      ]
    }
  ],
  "nodes": [
    {
      "children": [
        1
      ],
      "matrix": [
        0.017334874719381332,
        0.0,
        0.0,
        0.0,
        0.0,
        3.849115408489941e-18,
        -0.017334874719381332,
        0.0,
        0.0,
        0.017334874719381332,
        3.849115408489941e-18,
        0.0,
        0.0,
        0.0,
        0.0,
        1.0
      ],
      "name": "Sketchfab_model"
    },
    {
      "children": [
        2
      ],
      "matrix": [
        1.0,
        0.0,
        0.0,
        0.0,
        0.0,
        0.0,
        1.0,
        0.0,
        0.0,
        -1.0,
        0.0,
        0.0,
        0.0,
        0.0,
        0.0,
        1.0
      ],
      "name": "4396af7b819246e8a4757cd1d8ea3fba.fbx"
    },
    {
      "children": [
        3
      ],
      "name": "RootNode"
    },
    {
      "children": [
        4,
        5
      ],
      "matrix": [
        1.0,
        0.0,
        0.0,
        0.0,
        0.0,
        2.220446049250313e-16,
        -1.0,
        0.0,
        0.0,
        1.0,
        2.220446049250313e-16,
        0.0,
        0.0,
        0.0,
        0.0,
        1.0
      ],
      "name": "379747_Piatto_Lightstar"
    },
    {
      "mesh": 0,
      "name": "379747_Piatto_Lightstar_Kraska_Black_Bump_0"
    },
    {
      "mesh": 1,
      "name": "379747_Piatto_Lightstar_Glass_mat_white_0"
    }
  ],
  "samplers": [
    {
      "magFilter": 9729,
      "minFilter": 9987,
      "wrapS": 10497,
      "wrapT": 10497
    }
  ],
  "scene": 0,
  "scenes": [
    {
      "name": "Sketchfab_Scene",
      "nodes": [
        0
      ]
    }
  ],
  "textures": [
    {
      "sampler": 0,
      "source": 0
    }
  ]
}
