{
  "accessors": [
    {
      "bufferView": 2,
      "componentType": 5126,
      "count": 45213,
      "max": [
        6.789828300476074,
        4.036907196044922,
        6.789828300476074
      ],
      "min": [
        -6.789828300476074,
        2.007589817047119,
        -6.789828300476074
      ],
      "type": "VEC3"
    },
    {
      "bufferView": 2,
      "byteOffset": 542556,
      "componentType": 5126,
      "count": 45213,
      "max": [
        1.0,
        1.0,
        1.0
      ],
      "min": [
        -1.0,
        -1.0,
        -1.0
      ],
      "type": "VEC3"
    },
    {
      "bufferView": 1,
      "componentType": 5126,
      "count": 45213,
      "max": [
        1.113171935081482,
        1.0440130233764648
      ],
      "min": [
        0.0,
        -0.0016639225650578737
      ],
      "type": "VEC2"
    },
    {
      "bufferView": 0,
      "componentType": 5125,
      "count": 134238,
      "type": "SCALAR"
    },
    {
      "bufferView": 2,
      "byteOffset": 1085112,
      "componentType": 5126,
      "count": 5280,
      "max": [
        6.701688766479492,
        4.028203010559082,
        6.701688766479492
      ],
      "min": [
        -6.701688766479492,
        -0.009562134742736816,
        -6.701688766479492
      ],
      "type": "VEC3"
    },
    {
      "bufferView": 2,
      "byteOffset": 1148472,
      "componentType": 5126,
      "count": 5280,
      "max": [
        1.0,
        1.0,
        1.0
      ],
      "min": [
        -1.0,
        -1.0,
        -1.0
      ],
      "type": "VEC3"
    },
    {
      "bufferView": 1,
      "byteOffset": 361704,
      "componentType": 5126,
      "count": 5280,
      "max": [
        0.875,
        0.9883657097816467
      ],
      "min": [
        0.125,
        -9.946233718321103e-19
      ],
      "type": "VEC2"
    },
    {
      "bufferView": 0,
      "byteOffset": 536952,
      "componentType": 5125,
      "count": 23328,
      "type": "SCALAR"
    }
  ],
  "asset": {
    "extras": {
      "author": "sameerirfan11422 (https://sketchfab.com/sameerirfan11422)",
      "license": "CC-BY-4.0 (http://creativecommons.org/licenses/by/4.0/)",
      "source": "https://sketchfab.com/3d-models/park-bench-32a57e3bfee64bbea17d212d88061d64",
      "title": "Park_bench"
    },
    "generator": "Sketchfab-15.30.0",
    "version": "2.0"
  },
  "bufferViews": [
    {
      "buffer": 0,
      "byteLength": 630264,
      "name": "floatBufferViews",
      "target": 34963
    },
    {
      "buffer": 0,
      "byteLength": 403944,
      "byteOffset": 630264,
      "byteStride": 8,
      "name": "floatBufferViews",
      "target": 34962
    },
    {
      "buffer": 0,
      "byteLength": 1211832,
      "byteOffset": 1034208,
      "byteStride": 12,
      "name": "floatBufferViews",
      "target": 34962
    }
  ],
  "buffers": [
    {
      "byteLength": 2246040,
      "uri": "scene.bin"
    }
  ],
  "materials": [
    {
      "doubleSided": true,
      "name": "blinn1",
      "pbrMetallicRoughness": {
        "baseColorFactor": [
          0.144501,
          0.237762,
          0.150719,
          1.0
        ],
        "metallicFactor": 0.0
      }
    },
    {
      "doubleSided": true,
      "name": "blinn2",
      "pbrMetallicRoughness": {
        "baseColorFactor": [
          0.167,
          0.1567,
          0.1474,
          1.0
        ],
        "metallicFactor": 0.0
      }
    }
  ],
  "meshes": [
    {
      "name": "pCylinder3_blinn1_0",
      "primitives": [
        {
          "attributes": {
            "NORMAL": 1,
            "POSITION": 0,
            "TEXCOORD_0": 2
          },
          "indices": 3,
          "material": 0,
          "mode": 4
        }
      ]
    },
    {
      "name": "pCylinder3_blinn2_0",
      "primitives": [
        {
          "attributes": {
            "NORMAL": 5,
            "POSITION": 4,
            "TEXCOORD_0": 6
          },
          "indices": 7,
          "material": 1,
          "mode": 4
        }
      ]
    }
  ],
  "nodes": [
    {
      "children": [
        1
      ],
      "matrix": [
        1.0,
        0.0,
        0.0,
        0.0,
        0.0,
        2.220446049250313e-16,
        -1.0,
        0.0,
        0.0,
        1.0,
        2.220446049250313e-16,
        0.0,
        0.0,
        0.0,
        0.0,
        1.0
      ],
      "name": "Sketchfab_model"
    },
    {
      "children": [
        2
      ],
      "matrix": [
        0.009999999776482582,
        0.0,
        0.0,
        0.0,
        0.0,
        0.0,
        0.009999999776482582,
        0.0,
        0.0,
        -0.009999999776482582,
        0.0,
        0.0,
        0.0,
        0.0,
        0.0,
        1.0
      ],
      "name": "edb8a0956cda4f8b9ecd340a483a0894.fbx"
    },
    {
      "children": [
        3,
        5,
        7,
        9
      ],
      "name": "RootNode"
    },
    {
      "children": [
        4
      ],
      "matrix": [
        1.0,
        0.0,
        0.0,
        0.0,
        0.0,
        1.0,
        0.0,
        0.0,
        0.0,
        0.0,
        1.0,
        0.0,
        -1000.0999755859375,
        0.0,
        0.0,
        1.0
      ],
      "name": "left"
    },
    {
      "name": "Object_4"
    },
    {
      "children": [
        6
      ],
      "matrix": [
        0.0,
        1.0,
        0.0,
        0.0,
        0.0,
        0.0,
        1.0,
        0.0,
        1.0,
        0.0,
        0.0,
        0.0,
        2.5984716415405273,
        -1000.0999755859375,
        2.8847107887268066,
        1.0
      ],
      "name": "bottom1"
    },
    {
      "name": "Object_6"
    },
    {
      "children": [
        8
      ],
      "matrix": [
        2.220446049250313e-16,
        0.0,
        1.0,
        0.0,
        0.0,
        1.0,
        0.0,
        0.0,
        -1.0,
        0.0,
        2.220446049250313e-16,
        0.0,
        -5.234735012054443,
        0.864764392375946,
        -1000.0999755859375,
        1.0
      ],
      "name": "back1"
    },
    {
      "name": "Object_8"
    },
    {
      "children": [
        10,
        11
      ],
      "name": "pCylinder3"
    },
    {
      "mesh": 0,
      "name": "pCylinder3_blinn1_0"
    },
    {
      "mesh": 1,
      "name": "pCylinder3_blinn2_0"
    }
  ],
  "scene": 0,
  "scenes": [
    {
      "name": "Sketchfab_Scene",
      "nodes": [
        0
      ]
    }
  ]
}
