{
	"asset":{
		"generator":"Khronos glTF Blender I/O v4.3.47",
		"version":"2.0"
	},
	"scene":0,
	"scenes":[
		{
			"name":"Scene",
			"nodes":[
				4
			]
		}
	],
	"nodes":[
		{
			"mesh":0,
			"name":"coconut_tree_coconut_tree_mat_0"
		},
		{
			"children":[
				0
			],
			"name":"coconut_tree"
		},
		{
			"children":[
				1
			],
			"name":"RootNode"
		},
		{
			"children":[
				2
			],
			"name":"coconut tree.fbx",
			"rotation":[
				0.70710688829422,
				0,
				0,
				0.7071066498756409
			]
		},
		{
			"children":[
				3
			],
			"name":"Sketchfab_model",
			"rotation":[
				-0.70710688829422,
				0,
				0,
				0.7071066498756409
			]
		}
	],
	"meshes":[
		{
			"name":"coconut_tree_coconut_tree_mat_0",
			"primitives":[
				{
					"attributes":{
						"POSITION":0,
						"NORMAL":1,
						"TEXCOORD_0":2
					},
					"indices":3
				}
			]
		}
	],
	"accessors":[
		{
			"bufferView":0,
			"componentType":5126,
			"count":725,
			"max":[
				2.278076171875,
				5.010902404785156,
				2.3500571250915527
			],
			"min":[
				-2.0760135650634766,
				0,
				-2.3395867347717285
			],
			"type":"VEC3"
		},
		{
			"bufferView":1,
			"componentType":5126,
			"count":725,
			"type":"VEC3"
		},
		{
			"bufferView":2,
			"componentType":5126,
			"count":725,
			"type":"VEC2"
		},
		{
			"bufferView":3,
			"componentType":5123,
			"count":2034,
			"type":"SCALAR"
		}
	],
	"bufferViews":[
		{
			"buffer":0,
			"byteLength":8700,
			"byteOffset":0,
			"target":34962
		},
		{
			"buffer":0,
			"byteLength":8700,
			"byteOffset":8700,
			"target":34962
		},
		{
			"buffer":0,
			"byteLength":5800,
			"byteOffset":17400,
			"target":34962
		},
		{
			"buffer":0,
			"byteLength":4068,
			"byteOffset":23200,
			"target":34963
		}
	],
	"buffers":[
		{
			"byteLength":27268,
			"uri":"ba%C5%9Fl%C4%B1ks%C4%B1z.bin"
		}
	]
}
