{
  "accessors": [
    {
      "bufferView": 2,
      "componentType": 5126,
      "count": 358,
      "max": [
        1.4129046201705933,
        1.4129048585891724,
        -1.0000001192092896
      ],
      "min": [
        -1.4129048585891724,
        -1.4129046201705933,
        -1.7407716512680054
      ],
      "type": "VEC3"
    },
    {
      "bufferView": 2,
      "byteOffset": 4296,
      "componentType": 5126,
      "count": 358,
      "max": [
        1.0,
        1.0,
        1.0
      ],
      "min": [
        -1.0,
        -1.0,
        -1.0
      ],
      "type": "VEC3"
    },
    {
      "bufferView": 3,
      "componentType": 5126,
      "count": 358,
      "max": [
        0.9476369023323059,
        1.0,
        1.0,
        1.0
      ],
      "min": [
        -0.9430413246154785,
        -1.0,
        -1.0,
        1.0
      ],
      "type": "VEC4"
    },
    {
      "bufferView": 1,
      "componentType": 5126,
      "count": 358,
      "max": [
        0.8882400989532471,
        0.8703810572624207
      ],
      "min": [
        0.5698358416557312,
        0.00022903335047885776
      ],
      "type": "VEC2"
    },
    {
      "bufferView": 0,
      "componentType": 5125,
      "count": 996,
      "type": "SCALAR"
    },
    {
      "bufferView": 2,
      "byteOffset": 8592,
      "componentType": 5126,
      "count": 460,
      "max": [
        1.0,
        1.0,
        15.204696655273438
      ],
      "min": [
        -1.0,
        -1.0,
        1.197078824043274
      ],
      "type": "VEC3"
    },
    {
      "bufferView": 2,
      "byteOffset": 14112,
      "componentType": 5126,
      "count": 460,
      "max": [
        1.0,
        1.0,
        1.0
      ],
      "min": [
        -1.0,
        -1.0,
        -1.0
      ],
      "type": "VEC3"
    },
    {
      "bufferView": 3,
      "byteOffset": 5728,
      "componentType": 5126,
      "count": 460,
      "max": [
        1.0,
        1.0,
        1.0,
        1.0
      ],
      "min": [
        -1.0,
        -1.0,
        -8.3899021774414e-06,
        -1.0
      ],
      "type": "VEC4"
    },
    {
      "bufferView": 1,
      "byteOffset": 2864,
      "componentType": 5126,
      "count": 460,
      "max": [
        0.999770998954773,
        0.9204102158546448
      ],
      "min": [
        0.00022904043726157397,
        0.00022903087665326893
      ],
      "type": "VEC2"
    },
    {
      "bufferView": 0,
      "byteOffset": 3984,
      "componentType": 5125,
      "count": 1332,
      "type": "SCALAR"
    },
    {
      "bufferView": 2,
      "byteOffset": 19632,
      "componentType": 5126,
      "count": 66,
      "max": [
        0.9420198798179626,
        0.9420198798179626,
        14.169063568115234
      ],
      "min": [
        -0.9420198798179626,
        -0.9420198798179626,
        13.023116111755371
      ],
      "type": "VEC3"
    },
    {
      "bufferView": 2,
      "byteOffset": 20424,
      "componentType": 5126,
      "count": 66,
      "max": [
        1.0,
        1.0,
        0.0
      ],
      "min": [
        -1.0,
        -1.0,
        0.0
      ],
      "type": "VEC3"
    },
    {
      "bufferView": 1,
      "byteOffset": 6544,
      "componentType": 5126,
      "count": 66,
      "max": [
        0.6590020060539246,
        0.46003687381744385
      ],
      "min": [
        0.569835901260376,
        0.00022906006779521704
      ],
      "type": "VEC2"
    },
    {
      "bufferView": 0,
      "byteOffset": 9312,
      "componentType": 5125,
      "count": 192,
      "type": "SCALAR"
    }
  ],
  "asset": {
    "extras": {
      "author": "Skipperino (https://sketchfab.com/skipperino)",
      "license": "CC-BY-4.0 (http://creativecommons.org/licenses/by/4.0/)",
      "source": "https://sketchfab.com/3d-models/sci-fi-path-light-pole-low-poly-7516615fa4dd44adbe0c66f4ae4de6b5",
      "title": "Sci-Fi Path Light Pole (Low Poly)"
    },
    "generator": "Sketchfab-16.28.0",
    "version": "2.0"
  },
  "bufferViews": [
    {
      "buffer": 0,
      "byteLength": 10080,
      "name": "floatBufferViews",
      "target": 34963
    },
    {
      "buffer": 0,
      "byteLength": 7072,
      "byteOffset": 10080,
      "byteStride": 8,
      "name": "floatBufferViews",
      "target": 34962
    },
    {
      "buffer": 0,
      "byteLength": 21216,
      "byteOffset": 17152,
      "byteStride": 12,
      "name": "floatBufferViews",
      "target": 34962
    },
    {
      "buffer": 0,
      "byteLength": 13088,
      "byteOffset": 38368,
      "byteStride": 16,
      "name": "floatBufferViews",
      "target": 34962
    }
  ],
  "buffers": [
    {
      "byteLength": 51456,
      "uri": "scene.bin"
    }
  ],
  "extensionsUsed": [
    "KHR_materials_emissive_strength",
    "KHR_materials_specular"
  ],
  "images": [
    {
      "uri": "textures/industrial_grey_baseColor.png"
    },
    {
      "uri": "textures/industrial_grey_metallicRoughness.png"
    },
    {
      "uri": "textures/industrial_grey_normal.png"
    },
    {
      "uri": "textures/light_blinking_baseColor.png"
    },
    {
      "uri": "textures/light_blinking_metallicRoughness.png"
    }
  ],
  "materials": [
    {
      "doubleSided": true,
      "name": "industrial_grey",
      "normalTexture": {
        "index": 2
      },
      "pbrMetallicRoughness": {
        "baseColorTexture": {
          "index": 0
        },
        "metallicRoughnessTexture": {
          "index": 1
        }
      }
    },
    {
      "doubleSided": true,
      "emissiveFactor": [
        0.33071727939430134,
        0.836332953506054,
        0.9682027315029166
      ],
      "extensions": {
        "KHR_materials_emissive_strength": {
          "emissiveStrength": 1.0014627605368462
        },
        "KHR_materials_specular": {
          "specularColorFactor": [
            1.0,
            1.0,
            1.0
          ],
          "specularFactor": 0.0
        }
      },
      "name": "light_blinking",
      "pbrMetallicRoughness": {
        "baseColorTexture": {
          "index": 3
        },
        "metallicFactor": 0.0,
        "metallicRoughnessTexture": {
          "index": 4
        }
      }
    }
  ],
  "meshes": [
    {
      "name": "small light pole_industrial_grey_0",
      "primitives": [
        {
          "attributes": {
            "NORMAL": 1,
            "POSITION": 0,
            "TANGENT": 2,
            "TEXCOORD_0": 3
          },
          "indices": 4,
          "material": 0,
          "mode": 4
        }
      ]
    },
    {
      "name": "small light pole.001_industrial_grey_0",
      "primitives": [
        {
          "attributes": {
            "NORMAL": 6,
            "POSITION": 5,
            "TANGENT": 7,
            "TEXCOORD_0": 8
          },
          "indices": 9,
          "material": 0,
          "mode": 4
        }
      ]
    },
    {
      "name": "small light pole.001_light_blinking_0",
      "primitives": [
        {
          "attributes": {
            "NORMAL": 11,
            "POSITION": 10,
            "TEXCOORD_0": 12
          },
          "indices": 13,
          "material": 1,
          "mode": 4
        }
      ]
    }
  ],
  "nodes": [
    {
      "children": [
        1
      ],
      "matrix": [
        1.0,
        0.0,
        0.0,
        0.0,
        0.0,
        2.220446049250313e-16,
        -1.0,
        0.0,
        0.0,
        1.0,
        2.220446049250313e-16,
        0.0,
        0.0,
        0.0,
        0.0,
        1.0
      ],
      "name": "Sketchfab_model"
    },
    {
      "children": [
        2
      ],
      "matrix": [
        0.009999999776482582,
        0.0,
        0.0,
        0.0,
        0.0,
        0.0,
        0.009999999776482582,
        0.0,
        0.0,
        -0.009999999776482582,
        0.0,
        0.0,
        0.0,
        0.0,
        0.0,
        1.0
      ],
      "name": "sci fi path light pole.fbx"
    },
    {
      "children": [
        3
      ],
      "name": "RootNode"
    },
    {
      "children": [
        4,
        5
      ],
      "matrix": [
        99.9999771118164,
        0.0,
        0.0,
        0.0,
        0.0,
        -1.6292064210224722e-05,
        -99.99997711181508,
        0.0,
        0.0,
        99.99997711181508,
        -1.6292064210224722e-05,
        0.0,
        0.0,
        219.7078399658203,
        0.0,
        1.0
      ],
      "name": "small light pole"
    },
    {
      "mesh": 0,
      "name": "small light pole_industrial_grey_0"
    },
    {
      "children": [
        6,
        7
      ],
      "matrix": [
        1.0,
        0.0,
        0.0,
        0.0,
        0.0,
        1.0,
        0.0,
        0.0,
        0.0,
        0.0,
        1.0,
        0.0,
        0.0,
        5.293955920339377e-23,
        -2.1970789432525635,
        1.0
      ],
      "name": "small light pole.001"
    },
    {
      "mesh": 1,
      "name": "small light pole.001_industrial_grey_0"
    },
    {
      "mesh": 2,
      "name": "small light pole.001_light_blinking_0"
    }
  ],
  "samplers": [
    {
      "magFilter": 9729,
      "minFilter": 9987,
      "wrapS": 10497,
      "wrapT": 10497
    }
  ],
  "scene": 0,
  "scenes": [
    {
      "name": "Sketchfab_Scene",
      "nodes": [
        0
      ]
    }
  ],
  "textures": [
    {
      "sampler": 0,
      "source": 0
    },
    {
      "sampler": 0,
      "source": 1
    },
    {
      "sampler": 0,
      "source": 2
    },
    {
      "sampler": 0,
      "source": 3
    },
    {
      "sampler": 0,
      "source": 4
    }
  ]
}
